<svg id="Layer_1" data-name="Layer 1" xmlns="http://www.w3.org/2000/svg" viewBox="0 0 36.16 36.58"><defs><style>.cls-1{fill:#fff;}</style></defs><title>coffee-beans</title><g id="Page-1"><g id="Desktop"><g id="coffee-beans"><path id="Fill-1" class="cls-1" d="M13.44,14.92a16.92,16.92,0,0,1,7.68-6.8c-2.64-5-7.44-8-12-7.68,2.08,2.32,3.84,6.32,4.16,13A11.2,11.2,0,0,1,13.44,14.92Z" transform="translate(0 -0.42)"/><path id="Fill-3" class="cls-1" d="M9.36,13.64C9,6.28,6.72,3.24,4.88,2,0.4,4.92-1.28,11.72,1,18.12c1.84,5,5.6,8.4,9.6,9.52a18.5,18.5,0,0,1,.16-5.92A32.56,32.56,0,0,1,9.36,13.64Z" transform="translate(0 -0.42)"/><path id="Fill-4" class="cls-1" d="M31.28,11c-1.84,1.28-4.16,4.32-4.48,11.6-0.32,6.64-2.32,11.2-4.88,14.32,0.32,0,.64.08,1,0.08,5,0,10-3.92,12.24-9.84C37.44,20.68,35.76,14,31.28,11Z" transform="translate(0 -0.42)"/><path id="Fill-6" class="cls-1" d="M27,9.56h-0.8c-5,0-10,3.84-12.24,9.84-2.4,6.48-.64,13.2,3.84,16.16,2.48-2.56,4.72-6.56,5-13C23.12,15.8,24.88,11.88,27,9.56Z" transform="translate(0 -0.42)"/></g></g></g></svg>