<svg id="Layer_1" data-name="Layer 1" xmlns="http://www.w3.org/2000/svg" viewBox="0 0 178.97 39.48"><defs><style>.cls-1,.cls-3{fill:#fff;}.cls-2,.cls-3,.cls-4{isolation:isolate;}.cls-3,.cls-4{font-size:24px;font-family:Raleway;}.cls-4{fill:#28e7a8;font-weight:700;}</style></defs><title>logo-1</title><g id="Page-1"><g id="Desktop"><g id="logo"><g id="Group-3"><g id="Group"><path id="Fill-1" class="cls-1" d="M35.9,18.62a2.62,2.62,0,0,0-2.2-1.1H29.25c0-.67.06-1.23,0.07-1.62a0.69,0.69,0,0,0-.69-0.69H1a0.68,0.68,0,0,0-.69.69c0,3,.8,14.65,10.27,17.5H1.73a1.61,1.61,0,0,0-1.39.95l-0.27.71A0.65,0.65,0,0,0,.71,36H28.94a0.65,0.65,0,0,0,.65-0.95l-0.28-.71a1.6,1.6,0,0,0-1.39-.95H19.48a12.05,12.05,0,0,0,6.85-5.57,10.48,10.48,0,0,0,9.77-6.95A2.38,2.38,0,0,0,35.9,18.62Zm-1.71,1.49a8.4,8.4,0,0,1-6.78,5.57A24.88,24.88,0,0,0,29,19.58H33.7a0.59,0.59,0,0,1,.5.19A0.35,0.35,0,0,1,34.19,20.11Z" transform="translate(0 -0.02)"/><path id="Fill-3" class="cls-1" d="M14.56,14.32a0.73,0.73,0,1,0,1.1-1S13.72,11.06,15,9.5c1.65-2.08.65-3.78-.12-4.39a0.73,0.73,0,0,0-.91,1.14c0.18,0.15,1,1-.11,2.35C11.83,11.1,14.45,14.19,14.56,14.32Z" transform="translate(0 -0.02)"/><path id="Fill-4" class="cls-1" d="M18.46,1.31A0.73,0.73,0,0,0,17.54.18c-0.76.61-1.77,2.31-.11,4.39,1.24,1.56-.69,3.84-0.71,3.86a0.73,0.73,0,0,0,.07,1,0.73,0.73,0,0,0,1-.07c0.11-.13,2.74-3.22.75-5.72C17.46,2.27,18.28,1.46,18.46,1.31Z" transform="translate(0 -0.02)"/></g><g id="CoffeeDrop" class="cls-2"><text class="cls-3" transform="translate(50 33.98)">C<tspan x="16.46" y="0">o</tspan><tspan x="30.55" y="0">ff</tspan><tspan x="43.9" y="0">ee</tspan></text><text class="cls-4" transform="translate(123.37 33.98)">D<tspan x="17.18" y="0">r</tspan><tspan x="25.85" y="0">op</tspan></text></g></g></g></g></g></svg>