<svg id="Layer_1" data-name="Layer 1" xmlns="http://www.w3.org/2000/svg" xmlns:xlink="http://www.w3.org/1999/xlink" viewBox="0 0 53.92 73.03"><defs><style>.cls-1{filter:url(#filter-1);}.cls-2{fill:#373737;}.cls-3{fill:#28e7a8;}.cls-4{fill:#fff;}</style><filter id="filter-1" x="-23.5" y="-30.43" width="137" height="127" name="filter-1"><feOffset result="shadowOffsetOuter1" dy="-5" in="SourceAlpha"/><feGaussianBlur result="shadowBlurOuter1" stdDeviation="2.5" in="shadowOffsetOuter1"/><feColorMatrix result="shadowMatrixOuter1" values="0 0 0 0 0 0 0 0 0 0 0 0 0 0 0 0 0 0 0.25 0" in="shadowBlurOuter1"/><feMerge><feMergeNode in="shadowMatrixOuter1"/><feMergeNode in="SourceGraphic"/></feMerge></filter></defs><title>map-market</title><g id="Page-1"><g id="Desktop"><g class="cls-1"><path id="Path" class="cls-2" d="M32,83.16c-3.33,0-6-1.16-6-2.58S28.63,78,32,78s6,1.16,6,2.58S35.29,83.16,32,83.16Z" transform="translate(-5 -10.13)"/><g id="placeholder-_1_" data-name="placeholder-(1)"><path id="Fill-3" class="cls-3" d="M32,10.13A27.14,27.14,0,0,0,10.81,54L32,80.8,53.11,54A27.14,27.14,0,0,0,32,10.13Zm0,40.15a13.4,13.4,0,1,1,13.32-13.4A13.37,13.37,0,0,1,32,50.29Z" transform="translate(-5 -10.13)"/></g><path id="Path-2" data-name="Path" class="cls-4" d="M32,52.16A15.27,15.27,0,1,1,47.14,36.89,15.24,15.24,0,0,1,32,52.16Z" transform="translate(-5 -10.13)"/><g id="coffee-beans"><path id="Fill-1" class="cls-2" d="M29.69,35.43a8.47,8.47,0,0,1,3.8-3.49c-1.31-2.58-3.68-4.1-5.93-3.94,1,1.19,1.9,3.24,2.06,6.64A5.94,5.94,0,0,1,29.69,35.43Z" transform="translate(-5 -10.13)"/><path id="Fill-3-2" data-name="Fill-3" class="cls-2" d="M27.8,34.93c-0.16-3.85-1.35-5.44-2.3-6.11-2.3,1.55-3.16,5.1-2,8.45a7.8,7.8,0,0,0,4.92,5,9.86,9.86,0,0,1,.08-3.09A17.32,17.32,0,0,1,27.8,34.93Z" transform="translate(-5 -10.13)"/><path id="Fill-4" class="cls-2" d="M38.56,33.37c-0.92.67-2.08,2.27-2.24,6.08A12.8,12.8,0,0,1,33.88,47c0.16,0,.32,0,0.48,0,2.48,0,5-2.05,6.12-5.16C41.64,38.44,40.8,34.92,38.56,33.37Z" transform="translate(-5 -10.13)"/><path id="Fill-6" class="cls-2" d="M36.45,32.75H36.06c-2.43,0-4.9,2-6,5.16-1.18,3.4-.31,6.92,1.88,8.47a10.26,10.26,0,0,0,2.43-6.84C34.57,36,35.43,34,36.45,32.75Z" transform="translate(-5 -10.13)"/></g></g></g></g></svg>